<svg xmlns="http://www.w3.org/2000/svg" enable-background="new 0 0 47.5 47.5" viewBox="0 0 47.5 47.5" id="cinema"><defs><clipPath id="a"><path d="M0 38h38V0H0v38Z"></path></clipPath></defs><g clip-path="url(#a)" transform="matrix(1.25 0 0 -1.25 0 47.5)"><path fill="#3b88c3" d="M0 0a4 4 0 0 0-4-4h-28a4 4 0 0 0-4 4v28a4 4 0 0 0 4 4h28a4 4 0 0 0 4-4V0Z" transform="translate(37 5)"></path><path fill="#fff" d="M0 0a6 6 0 1 0-12 0A6 6 0 0 0 0 0" transform="translate(22 26)"></path><path fill="#fff" d="M0 0a5 5 0 1 0-10.001.001A5 5 0 0 0 0 0" transform="translate(32.999 24)"></path><path fill="#fff" d="M0 0a4 4 0 0 1-4 4h-11a4 4 0 0 1-4-4l-6 4h-1V-9h1l6 4v-2a4 4 0 0 1 4-4h11a4 4 0 0 1 4 4v7z" transform="translate(31 17)"></path></g></svg>